<?xml version="1.0" encoding="utf-8" standalone="no"?>
<!DOCTYPE svg PUBLIC "-//W3C//DTD SVG 1.1//EN"
  "http://www.w3.org/Graphics/SVG/1.1/DTD/svg11.dtd">
<!-- Created with matplotlib (http://matplotlib.org/) -->
<svg height="225pt" version="1.1" viewBox="0 0 345 225" width="345pt" xmlns="http://www.w3.org/2000/svg" xmlns:xlink="http://www.w3.org/1999/xlink">
 <defs>
  <style type="text/css">
*{stroke-linecap:butt;stroke-linejoin:round;stroke-miterlimit:100000;}
  </style>
 </defs>
 <g id="figure_1">
  <g id="patch_1">
   <path d="M 0 225.012346 
L 345.490129 225.012346 
L 345.490129 0 
L 0 0 
z
" style="fill:#ffffff;"/>
  </g>
  <g id="axes_1">
   <g id="patch_2">
    <path d="M 44.893729 192.2158 
L 338.290129 192.2158 
L 338.290129 10.88812 
L 44.893729 10.88812 
z
" style="fill:#ffffff;"/>
   </g>
   <g id="line2d_1">
    <path clip-path="url(#p525039427e)" d="M 138.247129 137.817496 
L 138.247129 155.950264 
" style="fill:none;stroke:#000000;stroke-linecap:square;"/>
   </g>
   <g id="line2d_2">
    <path clip-path="url(#p525039427e)" d="M 58.229929 168.625068 
L 96.333358 163.185238 
L 134.436786 157.582213 
L 172.540215 150.800558 
L 210.643643 145.016205 
L 248.747072 136.330609 
L 286.850501 129.186298 
L 324.953929 122.041987 
" style="fill:none;stroke:#0000ff;stroke-linecap:square;"/>
    <defs>
     <path d="M 0 2 
C 0.530406 2 1.03916 1.789267 1.414214 1.414214 
C 1.789267 1.03916 2 0.530406 2 0 
C 2 -0.530406 1.789267 -1.03916 1.414214 -1.414214 
C 1.03916 -1.789267 0.530406 -2 0 -2 
C -0.530406 -2 -1.03916 -1.789267 -1.414214 -1.414214 
C -1.789267 -1.03916 -2 -0.530406 -2 0 
C -2 0.530406 -1.789267 1.03916 -1.414214 1.414214 
C -1.03916 1.789267 -0.530406 2 0 2 
z
" id="m44795a0454" style="stroke:#000000;stroke-width:0.5;"/>
    </defs>
    <g clip-path="url(#p525039427e)">
     <use style="fill:#0000ff;stroke:#000000;stroke-width:0.5;" x="58.2299290823" xlink:href="#m44795a0454" y="168.625068457"/>
     <use style="fill:#0000ff;stroke:#000000;stroke-width:0.5;" x="96.3333576538" xlink:href="#m44795a0454" y="163.185238057"/>
     <use style="fill:#0000ff;stroke:#000000;stroke-width:0.5;" x="134.436786225" xlink:href="#m44795a0454" y="157.582212745"/>
     <use style="fill:#0000ff;stroke:#000000;stroke-width:0.5;" x="172.540214797" xlink:href="#m44795a0454" y="150.800557513"/>
     <use style="fill:#0000ff;stroke:#000000;stroke-width:0.5;" x="210.643643368" xlink:href="#m44795a0454" y="145.016204521"/>
     <use style="fill:#0000ff;stroke:#000000;stroke-width:0.5;" x="248.747071939" xlink:href="#m44795a0454" y="136.330608649"/>
     <use style="fill:#0000ff;stroke:#000000;stroke-width:0.5;" x="286.850500511" xlink:href="#m44795a0454" y="129.186298057"/>
     <use style="fill:#0000ff;stroke:#000000;stroke-width:0.5;" x="324.953929082" xlink:href="#m44795a0454" y="122.041987465"/>
    </g>
   </g>
   <g id="line2d_3">
    <path clip-path="url(#p525039427e)" d="M 58.229929 177.365063 
L 96.333358 170.202619 
L 134.436786 161.408227 
L 172.540215 148.26197 
L 210.643643 134.589863 
L 248.747072 120.736428 
L 286.850501 103.12951 
L 324.953929 87.00948 
" style="fill:none;stroke:#008000;stroke-linecap:square;"/>
    <defs>
     <path d="M 0 2 
C 0.530406 2 1.03916 1.789267 1.414214 1.414214 
C 1.789267 1.03916 2 0.530406 2 0 
C 2 -0.530406 1.789267 -1.03916 1.414214 -1.414214 
C 1.03916 -1.789267 0.530406 -2 0 -2 
C -0.530406 -2 -1.03916 -1.789267 -1.414214 -1.414214 
C -1.789267 -1.03916 -2 -0.530406 -2 0 
C -2 0.530406 -1.789267 1.03916 -1.414214 1.414214 
C -1.03916 1.789267 -0.530406 2 0 2 
z
" id="me9c041a095" style="stroke:#000000;stroke-width:0.5;"/>
    </defs>
    <g clip-path="url(#p525039427e)">
     <use style="fill:#008000;stroke:#000000;stroke-width:0.5;" x="58.2299290823" xlink:href="#me9c041a095" y="177.365062633"/>
     <use style="fill:#008000;stroke:#000000;stroke-width:0.5;" x="96.3333576538" xlink:href="#me9c041a095" y="170.202619273"/>
     <use style="fill:#008000;stroke:#000000;stroke-width:0.5;" x="134.436786225" xlink:href="#me9c041a095" y="161.408226793"/>
     <use style="fill:#008000;stroke:#000000;stroke-width:0.5;" x="172.540214797" xlink:href="#me9c041a095" y="148.261969993"/>
     <use style="fill:#008000;stroke:#000000;stroke-width:0.5;" x="210.643643368" xlink:href="#me9c041a095" y="134.589862921"/>
     <use style="fill:#008000;stroke:#000000;stroke-width:0.5;" x="248.747071939" xlink:href="#me9c041a095" y="120.736428169"/>
     <use style="fill:#008000;stroke:#000000;stroke-width:0.5;" x="286.850500511" xlink:href="#me9c041a095" y="103.129510441"/>
     <use style="fill:#008000;stroke:#000000;stroke-width:0.5;" x="324.953929082" xlink:href="#me9c041a095" y="87.0094796886"/>
    </g>
   </g>
   <g id="line2d_4">
    <path clip-path="url(#p525039427e)" d="M 58.229929 180.193774 
L 96.333358 172.378551 
L 134.436786 160.682916 
L 172.540215 145.977241 
L 210.643643 128.007668 
L 248.747072 107.046188 
L 286.850501 87.480932 
L 324.953929 68.151401 
" style="fill:none;stroke:#ff0000;stroke-linecap:square;"/>
    <defs>
     <path d="M 0 2 
C 0.530406 2 1.03916 1.789267 1.414214 1.414214 
C 1.789267 1.03916 2 0.530406 2 0 
C 2 -0.530406 1.789267 -1.03916 1.414214 -1.414214 
C 1.03916 -1.789267 0.530406 -2 0 -2 
C -0.530406 -2 -1.03916 -1.789267 -1.414214 -1.414214 
C -1.789267 -1.03916 -2 -0.530406 -2 0 
C -2 0.530406 -1.789267 1.03916 -1.414214 1.414214 
C -1.03916 1.789267 -0.530406 2 0 2 
z
" id="m84e55d1b0a" style="stroke:#000000;stroke-width:0.5;"/>
    </defs>
    <g clip-path="url(#p525039427e)">
     <use style="fill:#ff0000;stroke:#000000;stroke-width:0.5;" x="58.2299290823" xlink:href="#m84e55d1b0a" y="180.193774441"/>
     <use style="fill:#ff0000;stroke:#000000;stroke-width:0.5;" x="96.3333576538" xlink:href="#m84e55d1b0a" y="172.378551433"/>
     <use style="fill:#ff0000;stroke:#000000;stroke-width:0.5;" x="134.436786225" xlink:href="#m84e55d1b0a" y="160.682916073"/>
     <use style="fill:#ff0000;stroke:#000000;stroke-width:0.5;" x="172.540214797" xlink:href="#m84e55d1b0a" y="145.977241225"/>
     <use style="fill:#ff0000;stroke:#000000;stroke-width:0.5;" x="210.643643368" xlink:href="#m84e55d1b0a" y="128.007668137"/>
     <use style="fill:#ff0000;stroke:#000000;stroke-width:0.5;" x="248.747071939" xlink:href="#m84e55d1b0a" y="107.046188329"/>
     <use style="fill:#ff0000;stroke:#000000;stroke-width:0.5;" x="286.850500511" xlink:href="#m84e55d1b0a" y="87.4809316566"/>
     <use style="fill:#ff0000;stroke:#000000;stroke-width:0.5;" x="324.953929082" xlink:href="#m84e55d1b0a" y="68.1514009686"/>
    </g>
   </g>
   <g id="line2d_5">
    <path clip-path="url(#p525039427e)" d="M 58.229929 183.910992 
L 96.333358 173.847306 
L 134.436786 161.62582 
L 172.540215 144.109566 
L 210.643643 123.401945 
L 248.747072 99.448559 
L 286.850501 75.078118 
L 324.953929 51.686848 
" style="fill:none;stroke:#00bfbf;stroke-linecap:square;"/>
    <defs>
     <path d="M 0 2 
C 0.530406 2 1.03916 1.789267 1.414214 1.414214 
C 1.789267 1.03916 2 0.530406 2 0 
C 2 -0.530406 1.789267 -1.03916 1.414214 -1.414214 
C 1.03916 -1.789267 0.530406 -2 0 -2 
C -0.530406 -2 -1.03916 -1.789267 -1.414214 -1.414214 
C -1.789267 -1.03916 -2 -0.530406 -2 0 
C -2 0.530406 -1.789267 1.03916 -1.414214 1.414214 
C -1.03916 1.789267 -0.530406 2 0 2 
z
" id="m3303e65771" style="stroke:#000000;stroke-width:0.5;"/>
    </defs>
    <g clip-path="url(#p525039427e)">
     <use style="fill:#00bfbf;stroke:#000000;stroke-width:0.5;" x="58.2299290823" xlink:href="#m3303e65771" y="183.910991881"/>
     <use style="fill:#00bfbf;stroke:#000000;stroke-width:0.5;" x="96.3333576538" xlink:href="#m3303e65771" y="173.847305641"/>
     <use style="fill:#00bfbf;stroke:#000000;stroke-width:0.5;" x="134.436786225" xlink:href="#m3303e65771" y="161.625820009"/>
     <use style="fill:#00bfbf;stroke:#000000;stroke-width:0.5;" x="172.540214797" xlink:href="#m3303e65771" y="144.109566121"/>
     <use style="fill:#00bfbf;stroke:#000000;stroke-width:0.5;" x="210.643643368" xlink:href="#m3303e65771" y="123.401945065"/>
     <use style="fill:#00bfbf;stroke:#000000;stroke-width:0.5;" x="248.747071939" xlink:href="#m3303e65771" y="99.4485585366"/>
     <use style="fill:#00bfbf;stroke:#000000;stroke-width:0.5;" x="286.850500511" xlink:href="#m3303e65771" y="75.0781183446"/>
     <use style="fill:#00bfbf;stroke:#000000;stroke-width:0.5;" x="324.953929082" xlink:href="#m3303e65771" y="51.6868476246"/>
    </g>
   </g>
   <g id="line2d_6">
    <path clip-path="url(#p525039427e)" d="M 58.229929 186.64904 
L 96.333358 178.217303 
L 134.436786 162.47806 
L 172.540215 141.716041 
L 210.643643 112.322824 
L 248.747072 82.059234 
L 286.850501 53.681452 
L 324.953929 20.969939 
" style="fill:none;stroke:#bf00bf;stroke-linecap:square;"/>
    <defs>
     <path d="M 0 2 
C 0.530406 2 1.03916 1.789267 1.414214 1.414214 
C 1.789267 1.03916 2 0.530406 2 0 
C 2 -0.530406 1.789267 -1.03916 1.414214 -1.414214 
C 1.03916 -1.789267 0.530406 -2 0 -2 
C -0.530406 -2 -1.03916 -1.789267 -1.414214 -1.414214 
C -1.789267 -1.03916 -2 -0.530406 -2 0 
C -2 0.530406 -1.789267 1.03916 -1.414214 1.414214 
C -1.03916 1.789267 -0.530406 2 0 2 
z
" id="m3d98595a14" style="stroke:#000000;stroke-width:0.5;"/>
    </defs>
    <g clip-path="url(#p525039427e)">
     <use style="fill:#bf00bf;stroke:#000000;stroke-width:0.5;" x="58.2299290823" xlink:href="#m3d98595a14" y="186.649039849"/>
     <use style="fill:#bf00bf;stroke:#000000;stroke-width:0.5;" x="96.3333576538" xlink:href="#m3d98595a14" y="178.217302729"/>
     <use style="fill:#bf00bf;stroke:#000000;stroke-width:0.5;" x="134.436786225" xlink:href="#m3d98595a14" y="162.478060105"/>
     <use style="fill:#bf00bf;stroke:#000000;stroke-width:0.5;" x="172.540214797" xlink:href="#m3d98595a14" y="141.716040745"/>
     <use style="fill:#bf00bf;stroke:#000000;stroke-width:0.5;" x="210.643643368" xlink:href="#m3d98595a14" y="112.322823817"/>
     <use style="fill:#bf00bf;stroke:#000000;stroke-width:0.5;" x="248.747071939" xlink:href="#m3d98595a14" y="82.0592340246"/>
     <use style="fill:#bf00bf;stroke:#000000;stroke-width:0.5;" x="286.850500511" xlink:href="#m3d98595a14" y="53.6814521046"/>
     <use style="fill:#bf00bf;stroke:#000000;stroke-width:0.5;" x="324.953929082" xlink:href="#m3d98595a14" y="20.9699386326"/>
    </g>
   </g>
   <g id="line2d_7">
    <path clip-path="url(#p525039427e)" d="M 75.991614 188.589246 
L 93.356146 181.154811 
L 113.740261 172.088427 
L 137.899588 159.758145 
L 168.098346 145.251931 
L 204.337069 126.937835 
L 251.900359 103.727892 
L 316.073087 74.534135 
" style="fill:none;stroke:#000000;stroke-linecap:square;"/>
    <defs>
     <path d="M 0 3 
C 0.795609 3 1.55874 2.683901 2.12132 2.12132 
C 2.683901 1.55874 3 0.795609 3 0 
C 3 -0.795609 2.683901 -1.55874 2.12132 -2.12132 
C 1.55874 -2.683901 0.795609 -3 0 -3 
C -0.795609 -3 -1.55874 -2.683901 -2.12132 -2.12132 
C -2.683901 -1.55874 -3 -0.795609 -3 0 
C -3 0.795609 -2.683901 1.55874 -2.12132 2.12132 
C -1.55874 2.683901 -0.795609 3 0 3 
z
" id="m6c86025a28" style="stroke:#000000;stroke-width:0.5;"/>
    </defs>
    <g clip-path="url(#p525039427e)">
     <use style="stroke:#000000;stroke-width:0.5;" x="75.9916136903" xlink:href="#m6c86025a28" y="188.589246025"/>
     <use style="stroke:#000000;stroke-width:0.5;" x="93.3561462623" xlink:href="#m6c86025a28" y="181.154811145"/>
     <use style="stroke:#000000;stroke-width:0.5;" x="113.740261238" xlink:href="#m6c86025a28" y="172.088427145"/>
     <use style="stroke:#000000;stroke-width:0.5;" x="137.89958771" xlink:href="#m6c86025a28" y="159.758144905"/>
     <use style="stroke:#000000;stroke-width:0.5;" x="168.098345714" xlink:href="#m6c86025a28" y="145.251930505"/>
     <use style="stroke:#000000;stroke-width:0.5;" x="204.337068698" xlink:href="#m6c86025a28" y="126.937834825"/>
     <use style="stroke:#000000;stroke-width:0.5;" x="251.900359274" xlink:href="#m6c86025a28" y="103.727891785"/>
     <use style="stroke:#000000;stroke-width:0.5;" x="316.073086778" xlink:href="#m6c86025a28" y="74.5341353046"/>
    </g>
   </g>
   <g id="line2d_8">
    <path clip-path="url(#p525039427e)" d="M -1 155.950264 
L 16.739529 155.950264 
L 76.011529 155.950264 
L 135.283529 155.950264 
L 194.555529 155.950264 
L 253.827529 155.950264 
L 313.099529 155.950264 
L 346.490129 155.950264 
" style="fill:none;stroke:#000000;stroke-dasharray:6.000000,6.000000;stroke-dashoffset:0.0;"/>
   </g>
   <g id="patch_3">
    <path d="M 44.893729 10.88812 
L 338.290129 10.88812 
" style="fill:none;stroke:#000000;stroke-linecap:square;stroke-linejoin:miter;"/>
   </g>
   <g id="patch_4">
    <path d="M 338.290129 192.2158 
L 338.290129 10.88812 
" style="fill:none;stroke:#000000;stroke-linecap:square;stroke-linejoin:miter;"/>
   </g>
   <g id="patch_5">
    <path d="M 44.893729 192.2158 
L 338.290129 192.2158 
" style="fill:none;stroke:#000000;stroke-linecap:square;stroke-linejoin:miter;"/>
   </g>
   <g id="patch_6">
    <path d="M 44.893729 192.2158 
L 44.893729 10.88812 
" style="fill:none;stroke:#000000;stroke-linecap:square;stroke-linejoin:miter;"/>
   </g>
   <g id="matplotlib.axis_1">
    <g id="xtick_1">
     <g id="line2d_9">
      <defs>
       <path d="M 0 0 
L 0 -4 
" id="mb56351bc96" style="stroke:#000000;stroke-width:0.5;"/>
      </defs>
      <g>
       <use style="stroke:#000000;stroke-width:0.5;" x="84.9023290823" xlink:href="#mb56351bc96" y="192.215799625"/>
      </g>
     </g>
     <g id="line2d_10">
      <defs>
       <path d="M 0 0 
L 0 4 
" id="m21685a4db8" style="stroke:#000000;stroke-width:0.5;"/>
      </defs>
      <g>
       <use style="stroke:#000000;stroke-width:0.5;" x="84.9023290823" xlink:href="#m21685a4db8" y="10.8881196246"/>
      </g>
     </g>
     <g id="text_1">
      <!-- $8$ -->
      <defs>
       <path d="M 27.203125 35.375 
C 33.5 38.546875 39.90625 43.328125 39.90625 50.984375 
C 39.90625 60.015625 31.09375 65.296875 23 65.296875 
C 13.90625 65.296875 5.90625 58.734375 5.90625 49.6875 
C 5.90625 47.203125 6.5 42.921875 10.40625 39.140625 
C 11.40625 38.15625 15.59375 35.171875 18.296875 33.28125 
C 13.796875 30.984375 3.296875 25.53125 3.296875 14.59375 
C 3.296875 4.359375 13.09375 -2 22.796875 -2 
C 33.5 -2 42.5 5.65625 42.5 15.78125 
C 42.5 24.84375 36.40625 29.015625 32.40625 31.703125 
z
M 14.09375 44.09375 
C 13.296875 44.59375 9.296875 47.671875 9.296875 52.359375 
C 9.296875 58.421875 15.59375 63 22.796875 63 
C 30.703125 63 36.5 57.4375 36.5 50.96875 
C 36.5 41.703125 26.09375 36.421875 25.59375 36.421875 
C 25.5 36.421875 25.40625 36.421875 24.59375 37.03125 
z
M 32.5 23.734375 
C 34 22.640625 38.796875 19.375 38.796875 13.296875 
C 38.796875 5.953125 31.40625 0.390625 23 0.390625 
C 13.90625 0.390625 7 6.84375 7 14.6875 
C 7 22.546875 13.09375 29.09375 20 32.1875 
z
" id="CMR17-56"/>
      </defs>
      <g transform="translate(82.7852376576 201.894455836)scale(0.08 -0.08)">
       <use transform="scale(0.996264009963)" xlink:href="#CMR17-56"/>
      </g>
     </g>
    </g>
    <g id="xtick_2">
     <g id="line2d_11">
      <g>
       <use style="stroke:#000000;stroke-width:0.5;" x="138.247129082" xlink:href="#mb56351bc96" y="192.215799625"/>
      </g>
     </g>
     <g id="line2d_12">
      <g>
       <use style="stroke:#000000;stroke-width:0.5;" x="138.247129082" xlink:href="#m21685a4db8" y="10.8881196246"/>
      </g>
     </g>
     <g id="text_2">
      <!-- $10$ -->
      <defs>
       <path d="M 26.59375 63.40625 
C 26.59375 65.5 26.5 65.5 25.09375 65.5 
C 21.203125 61.1875 15.296875 59.796875 9.703125 59.796875 
C 9.40625 59.796875 8.90625 59.796875 8.796875 59.5 
C 8.703125 59.296875 8.703125 59.09375 8.703125 57 
C 11.796875 57 17 57.59375 21 59.984375 
L 21 7.203125 
C 21 3.6875 20.796875 2.5 12.203125 2.5 
L 9.203125 2.5 
L 9.203125 0 
C 14 0 19 0 23.796875 0 
C 28.59375 0 33.59375 0 38.40625 0 
L 38.40625 2.5 
L 35.40625 2.5 
C 26.796875 2.5 26.59375 3.59375 26.59375 7.15625 
z
" id="CMR17-49"/>
       <path d="M 42 31.640625 
C 42 37.75 41.90625 48.125 37.703125 56.109375 
C 34 63.109375 28.09375 65.59375 22.90625 65.59375 
C 18.09375 65.59375 12 63.40625 8.203125 56.203125 
C 4.203125 48.71875 3.796875 39.4375 3.796875 31.640625 
C 3.796875 25.953125 3.90625 17.28125 7 9.671875 
C 11.296875 -0.609375 19 -2 22.90625 -2 
C 27.5 -2 34.5 -0.109375 38.59375 9.375 
C 41.59375 16.28125 42 24.359375 42 31.640625 
M 22.90625 -0.40625 
C 16.5 -0.40625 12.703125 5.078125 11.296875 12.6875 
C 10.203125 18.5625 10.203125 27.15625 10.203125 32.75 
C 10.203125 40.4375 10.203125 46.828125 11.5 52.921875 
C 13.40625 61.390625 19 64 22.90625 64 
C 27 64 32.296875 61.296875 34.203125 53.125 
C 35.5 47.4375 35.59375 40.734375 35.59375 32.75 
C 35.59375 26.25 35.59375 18.265625 34.40625 12.375 
C 32.296875 1.484375 26.40625 -0.40625 22.90625 -0.40625 
" id="CMR17-48"/>
      </defs>
      <g transform="translate(134.012946233 201.894455836)scale(0.08 -0.08)">
       <use transform="scale(0.996264009963)" xlink:href="#CMR17-49"/>
       <use transform="translate(45.6904771171 0.0)scale(0.996264009963)" xlink:href="#CMR17-48"/>
      </g>
     </g>
    </g>
    <g id="xtick_3">
     <g id="line2d_13">
      <g>
       <use style="stroke:#000000;stroke-width:0.5;" x="191.591929082" xlink:href="#mb56351bc96" y="192.215799625"/>
      </g>
     </g>
     <g id="line2d_14">
      <g>
       <use style="stroke:#000000;stroke-width:0.5;" x="191.591929082" xlink:href="#m21685a4db8" y="10.8881196246"/>
      </g>
     </g>
     <g id="text_3">
      <!-- $12$ -->
      <defs>
       <path d="M 41.703125 15.453125 
L 39.90625 15.453125 
C 38.90625 8.375 38.09375 7.171875 37.703125 6.5625 
C 37.203125 5.765625 30 5.765625 28.59375 5.765625 
L 9.40625 5.765625 
C 13 9.671875 20 16.75 28.5 24.953125 
C 34.59375 30.734375 41.703125 37.53125 41.703125 47.421875 
C 41.703125 59.21875 32.296875 66 21.796875 66 
C 10.796875 66 4.09375 56.3125 4.09375 47.34375 
C 4.09375 43.4375 7 42.9375 8.203125 42.9375 
C 9.203125 42.9375 12.203125 43.546875 12.203125 47.03125 
C 12.203125 50.109375 9.59375 51 8.203125 51 
C 7.59375 51 7 50.90625 6.59375 50.703125 
C 8.5 59.21875 14.296875 63.40625 20.40625 63.40625 
C 29.09375 63.40625 34.796875 56.515625 34.796875 47.421875 
C 34.796875 38.734375 29.703125 31.25 24 24.75 
L 4.09375 2.28125 
L 4.09375 0 
L 39.296875 0 
z
" id="CMR17-50"/>
      </defs>
      <g transform="translate(187.357746233 201.894455836)scale(0.08 -0.08)">
       <use transform="scale(0.996264009963)" xlink:href="#CMR17-49"/>
       <use transform="translate(45.6904771171 0.0)scale(0.996264009963)" xlink:href="#CMR17-50"/>
      </g>
     </g>
    </g>
    <g id="xtick_4">
     <g id="line2d_15">
      <g>
       <use style="stroke:#000000;stroke-width:0.5;" x="244.936729082" xlink:href="#mb56351bc96" y="192.215799625"/>
      </g>
     </g>
     <g id="line2d_16">
      <g>
       <use style="stroke:#000000;stroke-width:0.5;" x="244.936729082" xlink:href="#m21685a4db8" y="10.8881196246"/>
      </g>
     </g>
     <g id="text_4">
      <!-- $14$ -->
      <defs>
       <path d="M 33.59375 64.40625 
C 33.59375 66.5 33.5 66.5 31.703125 66.5 
L 2 19.59375 
L 2 17 
L 27.796875 17 
L 27.796875 7.140625 
C 27.796875 3.5 27.59375 2.5 20.59375 2.5 
L 18.703125 2.5 
L 18.703125 0 
C 21.90625 0 27.296875 0 30.703125 0 
C 34.09375 0 39.5 0 42.703125 0 
L 42.703125 2.5 
L 40.796875 2.5 
C 33.796875 2.5 33.59375 3.5 33.59375 7.140625 
L 33.59375 17 
L 43.796875 17 
L 43.796875 19.59375 
L 33.59375 19.59375 
z
M 28.09375 57.859375 
L 28.09375 19.59375 
L 4 19.59375 
z
" id="CMR17-52"/>
      </defs>
      <g transform="translate(240.702546233 201.894455836)scale(0.08 -0.08)">
       <use transform="scale(0.996264009963)" xlink:href="#CMR17-49"/>
       <use transform="translate(45.6904771171 0.0)scale(0.996264009963)" xlink:href="#CMR17-52"/>
      </g>
     </g>
    </g>
    <g id="xtick_5">
     <g id="line2d_17">
      <g>
       <use style="stroke:#000000;stroke-width:0.5;" x="298.281529082" xlink:href="#mb56351bc96" y="192.215799625"/>
      </g>
     </g>
     <g id="line2d_18">
      <g>
       <use style="stroke:#000000;stroke-width:0.5;" x="298.281529082" xlink:href="#m21685a4db8" y="10.8881196246"/>
      </g>
     </g>
     <g id="text_5">
      <!-- $16$ -->
      <defs>
       <path d="M 10.59375 34 
C 10.59375 57.65625 21.796875 63 28.296875 63 
C 30.40625 63 35.5 62.640625 37.5 59 
C 35.90625 59 32.90625 59 32.90625 55.515625 
C 32.90625 52.828125 35.09375 51.921875 36.5 51.921875 
C 37.40625 51.921875 40.09375 52.3125 40.09375 55.625 
C 40.09375 61.78125 35.09375 65.296875 28.203125 65.296875 
C 16.296875 65.296875 3.796875 52.96875 3.796875 31 
C 3.796875 3.953125 15.09375 -2 23.09375 -2 
C 32.796875 -2 42 6.671875 42 20.046875 
C 42 32.515625 33.90625 41.59375 23.703125 41.59375 
C 17.59375 41.59375 13.09375 37.609375 10.59375 30.625 
z
M 23.09375 0.390625 
C 10.796875 0.390625 10.796875 18.75 10.796875 22.4375 
C 10.796875 29.625 14.203125 40 23.5 40 
C 25.203125 40 30.09375 40 33.40625 33.125 
C 35.203125 29.21875 35.203125 25.140625 35.203125 20.140625 
C 35.203125 14.75 35.203125 10.78125 33.09375 6.78125 
C 30.90625 2.671875 27.703125 0.390625 23.09375 0.390625 
" id="CMR17-54"/>
      </defs>
      <g transform="translate(294.047346233 201.894455836)scale(0.08 -0.08)">
       <use transform="scale(0.996264009963)" xlink:href="#CMR17-49"/>
       <use transform="translate(45.6904771171 0.0)scale(0.996264009963)" xlink:href="#CMR17-54"/>
      </g>
     </g>
    </g>
    <g id="text_6">
     <!-- benefit-to-cost ratio b/c -->
     <defs>
      <path d="M 53.5 5.203125 
C 52.59375 5 52.203125 5 51.703125 5 
C 48.796875 5 47.203125 6.484375 47.203125 9.078125 
L 47.203125 39.765625 
C 47.203125 49.015625 40.40625 54 27.5 54 
C 19.90625 54 13.59375 51.8125 10.09375 47.90625 
C 7.703125 45.203125 6.703125 42.21875 6.5 37.03125 
L 14.90625 37.03125 
C 15.59375 43.390625 19.40625 46.28125 27.203125 46.28125 
C 34.703125 46.28125 38.90625 43.484375 38.90625 38.515625 
L 38.90625 36.328125 
C 38.90625 32.828125 36.796875 31.34375 30.203125 30.546875 
C 18.40625 29.0625 16.59375 28.65625 13.40625 27.359375 
C 7.296875 24.875 4.203125 20.1875 4.203125 13.421875 
C 4.203125 3.96875 10.796875 -2 21.40625 -2 
C 28 -2 33.296875 0.296875 39.203125 5.703125 
C 39.796875 0.390625 42.40625 -2 47.796875 -2 
C 49.5 -2 50.796875 -1.8125 53.5 -1.09375 
z
M 38.90625 16.75 
C 38.90625 13.953125 38.09375 12.265625 35.59375 9.984375 
C 32.203125 6.890625 28.09375 5.3125 23.203125 5.3125 
C 16.703125 5.3125 12.90625 8.390625 12.90625 13.65625 
C 12.90625 19.140625 16.59375 21.921875 25.5 23.21875 
C 34.296875 24.40625 36.09375 24.8125 38.90625 26.09375 
z
" id="Nimbus_Sans_L_Regular-97"/>
      <path d="M 5.40625 73 
L 5.40625 -0.03125 
L 12.90625 -0.03125 
L 12.90625 7 
C 16.90625 0.890625 22.203125 -2 29.5 -2 
C 43.296875 -2 52.296875 9.25 52.296875 26.59375 
C 52.296875 43.53125 43.703125 54 29.90625 54 
C 22.703125 54 17.59375 51.28125 13.703125 45.390625 
L 13.703125 73 
z
M 28.296875 46.1875 
C 37.59375 46.1875 43.59375 38.125 43.59375 25.703125 
C 43.59375 13.859375 37.40625 5.8125 28.296875 5.8125 
C 19.5 5.8125 13.703125 13.765625 13.703125 26 
C 13.703125 38.234375 19.5 46.1875 28.296875 46.1875 
" id="Nimbus_Sans_L_Regular-98"/>
      <path d="M 25.40625 52.8125 
L 16.796875 52.8125 
L 16.796875 67 
L 8.5 67 
L 8.5 52.8125 
L 1.40625 52.8125 
L 1.40625 46 
L 8.5 46 
L 8.5 6.3125 
C 8.5 1 12.09375 -2 18.59375 -2 
C 20.59375 -2 22.59375 -1.8125 25.40625 -1.296875 
L 25.40625 5.71875 
C 24.296875 5.40625 23 5.3125 21.40625 5.3125 
C 17.796875 5.3125 16.796875 6.3125 16.796875 10.015625 
L 16.796875 46 
L 25.40625 46 
z
" id="Nimbus_Sans_L_Regular-116"/>
      <path d="M 25.203125 52.484375 
L 16.5 52.484375 
L 16.5 60.453125 
C 16.5 63.859375 18.5 65.59375 22.296875 65.59375 
C 23 65.59375 23.296875 65.59375 25.203125 65.59375 
L 25.203125 72.796875 
C 23.296875 72.96875 22.203125 73 20.5 73 
C 12.796875 73 8.203125 68.65625 8.203125 61.265625 
L 8.203125 52.484375 
L 1.203125 52.484375 
L 1.203125 45.671875 
L 8.203125 45.671875 
L 8.203125 0 
L 16.5 0 
L 16.5 45.671875 
L 25.203125 45.671875 
z
M 43.59375 52.484375 
L 35.296875 52.484375 
L 35.296875 0 
L 43.59375 0 
z
M 43.59375 73 
L 35.296875 73 
L 35.296875 62.484375 
L 43.59375 62.484375 
z
" id="Nimbus_Sans_L_Regular-2"/>
      <path d="M 28.40625 31.203125 
L 4.59375 31.203125 
L 4.59375 24 
L 28.40625 24 
z
" id="Nimbus_Sans_L_Regular-45"/>
      <path d="M 22.90625 73 
L -0.796875 -2 
L 4.703125 -2 
L 28.40625 73 
z
" id="Nimbus_Sans_L_Regular-47"/>
      <path d="M 47.09375 34.9375 
C 46.703125 40.03125 45.59375 43.328125 43.59375 46.21875 
C 40 51.109375 33.703125 54 26.40625 54 
C 12.296875 54 3.09375 42.84375 3.09375 25.5 
C 3.09375 8.65625 12.09375 -2 26.296875 -2 
C 38.796875 -2 46.703125 5.46875 47.703125 18.234375 
L 39.296875 18.234375 
C 37.90625 9.875 33.59375 5.703125 26.5 5.703125 
C 17.296875 5.703125 11.796875 13.171875 11.796875 25.5 
C 11.796875 38.53125 17.203125 46.28125 26.296875 46.28125 
C 33.296875 46.28125 37.703125 42.203125 38.703125 34.9375 
z
" id="Nimbus_Sans_L_Regular-99"/>
      <path d="M 15 52.484375 
L 6.703125 52.484375 
L 6.703125 0 
L 15 0 
z
M 15 73 
L 6.59375 73 
L 6.59375 62.484375 
L 15 62.484375 
z
" id="Nimbus_Sans_L_Regular-105"/>
      <path d="M 7 52.484375 
L 7 0 
L 15.40625 0 
L 15.40625 28.953125 
C 15.40625 39.671875 21 46.6875 29.59375 46.6875 
C 36.203125 46.6875 40.40625 42.671875 40.40625 36.359375 
L 40.40625 0 
L 48.703125 0 
L 48.703125 39.671875 
C 48.703125 48.390625 42.203125 54 32.09375 54 
C 24.296875 54 19.296875 50.984375 14.703125 43.6875 
L 14.703125 52.484375 
z
" id="Nimbus_Sans_L_Regular-110"/>
      <path d="M 27.203125 54 
C 12.5 54 3.59375 43.53125 3.59375 25.984375 
C 3.59375 8.453125 12.40625 -2 27.296875 -2 
C 42 -2 51 8.453125 51 25.59375 
C 51 43.625 42.296875 54 27.203125 54 
M 27.296875 46.28125 
C 36.703125 46.28125 42.296875 38.625 42.296875 25.703125 
C 42.296875 13.453125 36.5 5.703125 27.296875 5.703125 
C 18 5.703125 12.296875 13.359375 12.296875 25.984375 
C 12.296875 38.53125 18 46.28125 27.296875 46.28125 
" id="Nimbus_Sans_L_Regular-111"/>
      <path d="M 51.296875 23.890625 
C 51.296875 31.78125 50.703125 36.53125 49.203125 40.375 
C 45.796875 48.859375 37.796875 54 28 54 
C 13.40625 54 4 42.84375 4 25.703125 
C 4 8.546875 13.09375 -2 27.796875 -2 
C 39.796875 -2 48.09375 4.84375 50.203125 16.3125 
L 41.796875 16.3125 
C 39.5 9.34375 34.796875 5.703125 28.09375 5.703125 
C 22.796875 5.703125 18.296875 8.125 15.5 12.578125 
C 13.5 15.59375 12.796875 18.640625 12.703125 23.890625 
z
M 12.90625 31 
C 13.59375 40.265625 19.5 46.28125 27.90625 46.28125 
C 36.09375 46.28125 42.40625 39.53125 42.40625 31 
C 42.40625 31 42.40625 31 42.296875 31 
z
" id="Nimbus_Sans_L_Regular-101"/>
      <path d="M 6.90625 52.484375 
L 6.90625 0 
L 15.296875 0 
L 15.296875 27.203125 
C 15.296875 34.703125 17.203125 39.609375 21.203125 42.5 
C 23.796875 44.40625 26.296875 45 32.09375 45 
L 32.09375 53.625 
C 30.703125 53.8125 30 53.8125 28.90625 53.8125 
C 23.5 53.8125 19.40625 50.625 14.59375 42.90625 
L 14.59375 52.484375 
z
" id="Nimbus_Sans_L_Regular-114"/>
      <path d="M 43.796875 37.921875 
C 43.703125 48.203125 36.90625 54 24.796875 54 
C 12.59375 54 4.703125 47.71875 4.703125 38.0625 
C 4.703125 29.890625 8.90625 26.015625 21.296875 23.03125 
L 29.09375 21.140625 
C 34.90625 19.734375 37.203125 17.65625 37.203125 13.875 
C 37.203125 9 32.296875 5.703125 25 5.703125 
C 20.5 5.703125 16.703125 7 14.59375 9.1875 
C 13.296875 10.6875 12.703125 12.171875 12.203125 15.84375 
L 3.40625 15.84375 
C 3.796875 3.765625 10.59375 -2 24.296875 -2 
C 37.5 -2 45.90625 4.453125 45.90625 14.515625 
C 45.90625 22.28125 41.5 26.578125 31.09375 29.0625 
L 23.09375 30.953125 
C 16.296875 32.53125 13.40625 34.734375 13.40625 38.40625 
C 13.40625 43.1875 17.703125 46.28125 24.5 46.28125 
C 31.203125 46.28125 34.796875 43.390625 35 37.921875 
z
" id="Nimbus_Sans_L_Regular-115"/>
     </defs>
     <g transform="translate(140.977473039 215.690359138)scale(0.1 -0.1)">
      <use transform="scale(0.996264009963)" xlink:href="#Nimbus_Sans_L_Regular-98"/>
      <use transform="translate(55.3916769633 0.0)scale(0.996264009963)" xlink:href="#Nimbus_Sans_L_Regular-101"/>
      <use transform="translate(110.783353927 0.0)scale(0.996264009963)" xlink:href="#Nimbus_Sans_L_Regular-110"/>
      <use transform="translate(166.17503089 0.0)scale(0.996264009963)" xlink:href="#Nimbus_Sans_L_Regular-101"/>
      <use transform="translate(221.566707853 0.0)scale(0.996264009963)" xlink:href="#Nimbus_Sans_L_Regular-2"/>
      <use transform="translate(271.379908351 0.0)scale(0.996264009963)" xlink:href="#Nimbus_Sans_L_Regular-116"/>
      <use transform="translate(299.075077955 0.0)scale(0.996264009963)" xlink:href="#Nimbus_Sans_L_Regular-45"/>
      <use transform="translate(332.250307684 0.0)scale(0.996264009963)" xlink:href="#Nimbus_Sans_L_Regular-116"/>
      <use transform="translate(359.945477287 0.0)scale(0.996264009963)" xlink:href="#Nimbus_Sans_L_Regular-111"/>
      <use transform="translate(415.337154251 0.0)scale(0.996264009963)" xlink:href="#Nimbus_Sans_L_Regular-45"/>
      <use transform="translate(448.51238398 0.0)scale(0.996264009963)" xlink:href="#Nimbus_Sans_L_Regular-99"/>
      <use transform="translate(498.325584478 0.0)scale(0.996264009963)" xlink:href="#Nimbus_Sans_L_Regular-111"/>
      <use transform="translate(553.717261441 0.0)scale(0.996264009963)" xlink:href="#Nimbus_Sans_L_Regular-115"/>
      <use transform="translate(603.53046194 0.0)scale(0.996264009963)" xlink:href="#Nimbus_Sans_L_Regular-116"/>
      <use transform="translate(658.920801146 0.0)scale(0.996264009963)" xlink:href="#Nimbus_Sans_L_Regular-114"/>
      <use transform="translate(691.099934085 0.0)scale(0.996264009963)" xlink:href="#Nimbus_Sans_L_Regular-97"/>
      <use transform="translate(746.491611048 0.0)scale(0.996264009963)" xlink:href="#Nimbus_Sans_L_Regular-116"/>
      <use transform="translate(774.186780652 0.0)scale(0.996264009963)" xlink:href="#Nimbus_Sans_L_Regular-105"/>
      <use transform="translate(796.303565 0.0)scale(0.996264009963)" xlink:href="#Nimbus_Sans_L_Regular-111"/>
      <use transform="translate(879.390411567 0.0)scale(0.996264009963)" xlink:href="#Nimbus_Sans_L_Regular-98"/>
      <use transform="translate(934.78208853 0.0)scale(0.996264009963)" xlink:href="#Nimbus_Sans_L_Regular-47"/>
      <use transform="translate(962.477258134 0.0)scale(0.996264009963)" xlink:href="#Nimbus_Sans_L_Regular-99"/>
     </g>
    </g>
   </g>
   <g id="matplotlib.axis_2">
    <g id="ytick_1">
     <g id="line2d_19">
      <defs>
       <path d="M 0 0 
L 4 0 
" id="m46805a8062" style="stroke:#000000;stroke-width:0.5;"/>
      </defs>
      <g>
       <use style="stroke:#000000;stroke-width:0.5;" x="44.8937290823" xlink:href="#m46805a8062" y="192.215799625"/>
      </g>
     </g>
     <g id="line2d_20">
      <defs>
       <path d="M 0 0 
L -4 0 
" id="mfad8af3ddd" style="stroke:#000000;stroke-width:0.5;"/>
      </defs>
      <g>
       <use style="stroke:#000000;stroke-width:0.5;" x="338.290129082" xlink:href="#mfad8af3ddd" y="192.215799625"/>
      </g>
     </g>
     <g id="text_7">
      <!-- $0.000$ -->
      <defs>
       <path d="M 18.40625 4.796875 
C 18.40625 7.6875 16 9.671875 13.59375 9.671875 
C 10.703125 9.671875 8.703125 7.28125 8.703125 4.890625 
C 8.703125 2 11.09375 0 13.5 0 
C 16.40625 0 18.40625 2.390625 18.40625 4.796875 
" id="CMMI12-58"/>
      </defs>
      <g transform="translate(21.6046738792 194.206336211)scale(0.08 -0.08)">
       <use transform="scale(0.996264009963)" xlink:href="#CMR17-48"/>
       <use transform="translate(45.6904771171 0.0)scale(0.996264009963)" xlink:href="#CMMI12-58"/>
       <use transform="translate(72.7876542069 0.0)scale(0.996264009963)" xlink:href="#CMR17-48"/>
       <use transform="translate(118.478131324 0.0)scale(0.996264009963)" xlink:href="#CMR17-48"/>
       <use transform="translate(164.168608441 0.0)scale(0.996264009963)" xlink:href="#CMR17-48"/>
      </g>
     </g>
    </g>
    <g id="ytick_2">
     <g id="line2d_21">
      <g>
       <use style="stroke:#000000;stroke-width:0.5;" x="44.8937290823" xlink:href="#m46805a8062" y="155.950263625"/>
      </g>
     </g>
     <g id="line2d_22">
      <g>
       <use style="stroke:#000000;stroke-width:0.5;" x="338.290129082" xlink:href="#mfad8af3ddd" y="155.950263625"/>
      </g>
     </g>
     <g id="text_8">
      <!-- $0.002$ -->
      <g transform="translate(21.6046738792 157.940800211)scale(0.08 -0.08)">
       <use transform="scale(0.996264009963)" xlink:href="#CMR17-48"/>
       <use transform="translate(45.6904771171 0.0)scale(0.996264009963)" xlink:href="#CMMI12-58"/>
       <use transform="translate(72.7876542069 0.0)scale(0.996264009963)" xlink:href="#CMR17-48"/>
       <use transform="translate(118.478131324 0.0)scale(0.996264009963)" xlink:href="#CMR17-48"/>
       <use transform="translate(164.168608441 0.0)scale(0.996264009963)" xlink:href="#CMR17-50"/>
      </g>
     </g>
    </g>
    <g id="ytick_3">
     <g id="line2d_23">
      <g>
       <use style="stroke:#000000;stroke-width:0.5;" x="44.8937290823" xlink:href="#m46805a8062" y="119.684727625"/>
      </g>
     </g>
     <g id="line2d_24">
      <g>
       <use style="stroke:#000000;stroke-width:0.5;" x="338.290129082" xlink:href="#mfad8af3ddd" y="119.684727625"/>
      </g>
     </g>
     <g id="text_9">
      <!-- $0.004$ -->
      <g transform="translate(21.6046738792 121.675264211)scale(0.08 -0.08)">
       <use transform="scale(0.996264009963)" xlink:href="#CMR17-48"/>
       <use transform="translate(45.6904771171 0.0)scale(0.996264009963)" xlink:href="#CMMI12-58"/>
       <use transform="translate(72.7876542069 0.0)scale(0.996264009963)" xlink:href="#CMR17-48"/>
       <use transform="translate(118.478131324 0.0)scale(0.996264009963)" xlink:href="#CMR17-48"/>
       <use transform="translate(164.168608441 0.0)scale(0.996264009963)" xlink:href="#CMR17-52"/>
      </g>
     </g>
    </g>
    <g id="ytick_4">
     <g id="line2d_25">
      <g>
       <use style="stroke:#000000;stroke-width:0.5;" x="44.8937290823" xlink:href="#m46805a8062" y="83.4191916246"/>
      </g>
     </g>
     <g id="line2d_26">
      <g>
       <use style="stroke:#000000;stroke-width:0.5;" x="338.290129082" xlink:href="#mfad8af3ddd" y="83.4191916246"/>
      </g>
     </g>
     <g id="text_10">
      <!-- $0.006$ -->
      <g transform="translate(21.6046738792 85.4097282111)scale(0.08 -0.08)">
       <use transform="scale(0.996264009963)" xlink:href="#CMR17-48"/>
       <use transform="translate(45.6904771171 0.0)scale(0.996264009963)" xlink:href="#CMMI12-58"/>
       <use transform="translate(72.7876542069 0.0)scale(0.996264009963)" xlink:href="#CMR17-48"/>
       <use transform="translate(118.478131324 0.0)scale(0.996264009963)" xlink:href="#CMR17-48"/>
       <use transform="translate(164.168608441 0.0)scale(0.996264009963)" xlink:href="#CMR17-54"/>
      </g>
     </g>
    </g>
    <g id="ytick_5">
     <g id="line2d_27">
      <g>
       <use style="stroke:#000000;stroke-width:0.5;" x="44.8937290823" xlink:href="#m46805a8062" y="47.1536556246"/>
      </g>
     </g>
     <g id="line2d_28">
      <g>
       <use style="stroke:#000000;stroke-width:0.5;" x="338.290129082" xlink:href="#mfad8af3ddd" y="47.1536556246"/>
      </g>
     </g>
     <g id="text_11">
      <!-- $0.008$ -->
      <g transform="translate(21.6046738792 49.1441922111)scale(0.08 -0.08)">
       <use transform="scale(0.996264009963)" xlink:href="#CMR17-48"/>
       <use transform="translate(45.6904771171 0.0)scale(0.996264009963)" xlink:href="#CMMI12-58"/>
       <use transform="translate(72.7876542069 0.0)scale(0.996264009963)" xlink:href="#CMR17-48"/>
       <use transform="translate(118.478131324 0.0)scale(0.996264009963)" xlink:href="#CMR17-48"/>
       <use transform="translate(164.168608441 0.0)scale(0.996264009963)" xlink:href="#CMR17-56"/>
      </g>
     </g>
    </g>
    <g id="ytick_6">
     <g id="line2d_29">
      <g>
       <use style="stroke:#000000;stroke-width:0.5;" x="44.8937290823" xlink:href="#m46805a8062" y="10.8881196246"/>
      </g>
     </g>
     <g id="line2d_30">
      <g>
       <use style="stroke:#000000;stroke-width:0.5;" x="338.290129082" xlink:href="#mfad8af3ddd" y="10.8881196246"/>
      </g>
     </g>
     <g id="text_12">
      <!-- $0.010$ -->
      <g transform="translate(21.6046738792 12.8786562111)scale(0.08 -0.08)">
       <use transform="scale(0.996264009963)" xlink:href="#CMR17-48"/>
       <use transform="translate(45.6904771171 0.0)scale(0.996264009963)" xlink:href="#CMMI12-58"/>
       <use transform="translate(72.7876542069 0.0)scale(0.996264009963)" xlink:href="#CMR17-48"/>
       <use transform="translate(118.478131324 0.0)scale(0.996264009963)" xlink:href="#CMR17-49"/>
       <use transform="translate(164.168608441 0.0)scale(0.996264009963)" xlink:href="#CMR17-48"/>
      </g>
     </g>
    </g>
    <g id="text_13">
     <!-- fixation probability -->
     <defs>
      <path d="M 5.40625 -22 
L 13.796875 -22 
L 13.796875 5 
C 18.203125 -0.421875 23.09375 -2.8125 29.90625 -2.8125 
C 43.40625 -2.8125 52.296875 8.15625 52.296875 24.984375 
C 52.296875 42.71875 43.703125 53.8125 29.796875 53.8125 
C 22.703125 53.8125 17 50.59375 13.09375 44.390625 
L 13.09375 52.328125 
L 5.40625 52.328125 
z
M 28.40625 46 
C 37.59375 46 43.59375 37.8125 43.59375 25.1875 
C 43.59375 13.171875 37.5 5 28.40625 5 
C 19.59375 5 13.796875 13.078125 13.796875 25.5 
C 13.796875 37.921875 19.59375 46 28.40625 46 
" id="Nimbus_Sans_L_Regular-112"/>
      <path d="M 38.796875 52.5 
L 24.296875 11.53125 
L 10.90625 52.5 
L 2 52.5 
L 19.703125 -0.328125 
L 16.5 -8.65625 
C 15.203125 -12.375 13.296875 -13.78125 9.796875 -13.78125 
C 8.59375 -13.78125 7.203125 -13.578125 5.40625 -13.171875 
L 5.40625 -20.703125 
C 7.09375 -21.59375 8.796875 -22 11 -22 
C 13.703125 -22 16.59375 -21.09375 18.796875 -19.484375 
C 21.40625 -17.578125 22.90625 -15.359375 24.5 -11.140625 
L 47.796875 52.5 
z
" id="Nimbus_Sans_L_Regular-121"/>
      <path d="M 29.203125 27.140625 
L 46.796875 52.484375 
L 37.40625 52.484375 
L 24.796875 33.453125 
L 12.203125 52.484375 
L 2.703125 52.484375 
L 20.203125 26.75 
L 1.703125 0 
L 11.203125 0 
L 24.5 20.125 
L 37.59375 0 
L 47.296875 0 
z
" id="Nimbus_Sans_L_Regular-120"/>
      <path d="M 15.203125 73 
L 6.796875 73 
L 6.796875 -0.03125 
L 15.203125 -0.03125 
z
" id="Nimbus_Sans_L_Regular-108"/>
     </defs>
     <g transform="translate(14.4826874805 141.416969317)rotate(-90.0)scale(0.1 -0.1)">
      <use transform="scale(0.996264009963)" xlink:href="#Nimbus_Sans_L_Regular-2"/>
      <use transform="translate(49.8132004981 0.0)scale(0.996264009963)" xlink:href="#Nimbus_Sans_L_Regular-120"/>
      <use transform="translate(99.6264009963 0.0)scale(0.996264009963)" xlink:href="#Nimbus_Sans_L_Regular-97"/>
      <use transform="translate(155.01807796 0.0)scale(0.996264009963)" xlink:href="#Nimbus_Sans_L_Regular-116"/>
      <use transform="translate(182.713247563 0.0)scale(0.996264009963)" xlink:href="#Nimbus_Sans_L_Regular-105"/>
      <use transform="translate(204.830031912 0.0)scale(0.996264009963)" xlink:href="#Nimbus_Sans_L_Regular-111"/>
      <use transform="translate(260.221708875 0.0)scale(0.996264009963)" xlink:href="#Nimbus_Sans_L_Regular-110"/>
      <use transform="translate(343.308555442 0.0)scale(0.996264009963)" xlink:href="#Nimbus_Sans_L_Regular-112"/>
      <use transform="translate(398.700232405 0.0)scale(0.996264009963)" xlink:href="#Nimbus_Sans_L_Regular-114"/>
      <use transform="translate(431.875462134 0.0)scale(0.996264009963)" xlink:href="#Nimbus_Sans_L_Regular-111"/>
      <use transform="translate(487.267139098 0.0)scale(0.996264009963)" xlink:href="#Nimbus_Sans_L_Regular-98"/>
      <use transform="translate(542.658816061 0.0)scale(0.996264009963)" xlink:href="#Nimbus_Sans_L_Regular-97"/>
      <use transform="translate(598.050493024 0.0)scale(0.996264009963)" xlink:href="#Nimbus_Sans_L_Regular-98"/>
      <use transform="translate(653.442169988 0.0)scale(0.996264009963)" xlink:href="#Nimbus_Sans_L_Regular-105"/>
      <use transform="translate(675.558954336 0.0)scale(0.996264009963)" xlink:href="#Nimbus_Sans_L_Regular-108"/>
      <use transform="translate(697.675738685 0.0)scale(0.996264009963)" xlink:href="#Nimbus_Sans_L_Regular-105"/>
      <use transform="translate(719.792523034 0.0)scale(0.996264009963)" xlink:href="#Nimbus_Sans_L_Regular-116"/>
      <use transform="translate(747.487692637 0.0)scale(0.996264009963)" xlink:href="#Nimbus_Sans_L_Regular-121"/>
     </g>
    </g>
   </g>
   <g id="legend_1">
    <g id="patch_7">
     <path d="M 49.893729 118.430266 
L 144.03474 118.430266 
L 144.03474 15.88812 
L 49.893729 15.88812 
z
" style="fill:#ffffff;stroke:#000000;stroke-linejoin:miter;"/>
    </g>
    <g id="line2d_31">
     <path d="M 56.893729 23.48644 
L 70.893729 23.48644 
" style="fill:none;stroke:#0000ff;stroke-linecap:square;"/>
    </g>
    <g id="line2d_32">
     <g>
      <use style="fill:#0000ff;stroke:#000000;stroke-width:0.5;" x="56.8937290823" xlink:href="#m44795a0454" y="23.4864398885"/>
      <use style="fill:#0000ff;stroke:#000000;stroke-width:0.5;" x="70.8937290823" xlink:href="#m44795a0454" y="23.4864398885"/>
     </g>
    </g>
    <g id="text_14">
     <!-- c=0.05 -->
     <defs>
      <path d="M 53.40625 35.015625 
L 5 35.015625 
L 5 28 
L 53.40625 28 
z
M 53.40625 18 
L 5 18 
L 5 11 
L 53.40625 11 
z
" id="Nimbus_Sans_L_Regular-61"/>
      <path d="M 27.5 71 
C 20.90625 71 14.90625 68.125 11.203125 63.21875 
C 6.59375 57.046875 4.296875 47.5625 4.296875 34.5 
C 4.296875 10.671875 12.296875 -2 27.5 -2 
C 42.5 -2 50.703125 10.671875 50.703125 33.90625 
C 50.703125 47.65625 48.5 56.84375 43.796875 63.21875 
C 40.09375 68.21875 34.203125 71 27.5 71 
M 27.5 63.1875 
C 37 63.1875 41.703125 53.625 41.703125 34.703125 
C 41.703125 14.671875 37.09375 5.3125 27.296875 5.3125 
C 18 5.3125 13.296875 15.078125 13.296875 34.40625 
C 13.296875 53.71875 18 63.1875 27.5 63.1875 
" id="Nimbus_Sans_L_Regular-48"/>
      <path d="M 19.09375 10.421875 
L 8.703125 10.421875 
L 8.703125 0 
L 19.09375 0 
z
" id="Nimbus_Sans_L_Regular-46"/>
      <path d="M 47.59375 71 
L 11 71 
L 5.703125 32.59375 
L 13.796875 32.59375 
C 17.90625 37.484375 21.296875 39.1875 26.796875 39.1875 
C 36.296875 39.1875 42.296875 32.6875 42.296875 22.203125 
C 42.296875 12 36.40625 5.8125 26.796875 5.8125 
C 19.09375 5.8125 14.40625 9.703125 12.296875 17.703125 
L 3.5 17.703125 
C 4.703125 11.90625 5.703125 9.09375 7.796875 6.484375 
C 11.796875 1.09375 19 -2 27 -2 
C 41.296875 -2 51.296875 8.390625 51.296875 23.390625 
C 51.296875 37.40625 42 47 28.40625 47 
C 23.40625 47 19.40625 45.703125 15.296875 42.6875 
L 18.09375 62.296875 
L 47.59375 62.296875 
z
" id="Nimbus_Sans_L_Regular-53"/>
     </defs>
     <g transform="translate(81.8937290823 26.9864398885)scale(0.1 -0.1)">
      <use transform="scale(0.996264009963)" xlink:href="#Nimbus_Sans_L_Regular-99"/>
      <use transform="translate(49.8132004981 0.0)scale(0.996264009963)" xlink:href="#Nimbus_Sans_L_Regular-61"/>
      <use transform="translate(107.994693362 0.0)scale(0.996264009963)" xlink:href="#Nimbus_Sans_L_Regular-48"/>
      <use transform="translate(163.386370325 0.0)scale(0.996264009963)" xlink:href="#Nimbus_Sans_L_Regular-46"/>
      <use transform="translate(191.081539928 0.0)scale(0.996264009963)" xlink:href="#Nimbus_Sans_L_Regular-48"/>
      <use transform="translate(246.473216892 0.0)scale(0.996264009963)" xlink:href="#Nimbus_Sans_L_Regular-53"/>
     </g>
    </g>
    <g id="line2d_33">
     <path d="M 56.893729 37.706747 
L 70.893729 37.706747 
" style="fill:none;stroke:#008000;stroke-linecap:square;"/>
    </g>
    <g id="line2d_34">
     <g>
      <use style="fill:#008000;stroke:#000000;stroke-width:0.5;" x="56.8937290823" xlink:href="#me9c041a095" y="37.706746551"/>
      <use style="fill:#008000;stroke:#000000;stroke-width:0.5;" x="70.8937290823" xlink:href="#me9c041a095" y="37.706746551"/>
     </g>
    </g>
    <g id="text_15">
     <!-- c=0.1 -->
     <defs>
      <path d="M 25.90625 50.59375 
L 25.90625 0 
L 34.703125 0 
L 34.703125 71.015625 
L 28.90625 71.015625 
C 25.796875 60.109375 23.796875 58.609375 10.203125 56.90625 
L 10.203125 50.59375 
z
" id="Nimbus_Sans_L_Regular-49"/>
     </defs>
     <g transform="translate(81.8937290823 41.206746551)scale(0.1 -0.1)">
      <use transform="scale(0.996264009963)" xlink:href="#Nimbus_Sans_L_Regular-99"/>
      <use transform="translate(49.8132004981 0.0)scale(0.996264009963)" xlink:href="#Nimbus_Sans_L_Regular-61"/>
      <use transform="translate(107.994693362 0.0)scale(0.996264009963)" xlink:href="#Nimbus_Sans_L_Regular-48"/>
      <use transform="translate(163.386370325 0.0)scale(0.996264009963)" xlink:href="#Nimbus_Sans_L_Regular-46"/>
      <use transform="translate(191.081539928 0.0)scale(0.996264009963)" xlink:href="#Nimbus_Sans_L_Regular-49"/>
     </g>
    </g>
    <g id="line2d_35">
     <path d="M 56.893729 51.927053 
L 70.893729 51.927053 
" style="fill:none;stroke:#ff0000;stroke-linecap:square;"/>
    </g>
    <g id="line2d_36">
     <g>
      <use style="fill:#ff0000;stroke:#000000;stroke-width:0.5;" x="56.8937290823" xlink:href="#m84e55d1b0a" y="51.9270532135"/>
      <use style="fill:#ff0000;stroke:#000000;stroke-width:0.5;" x="70.8937290823" xlink:href="#m84e55d1b0a" y="51.9270532135"/>
     </g>
    </g>
    <g id="text_16">
     <!-- c=0.125 -->
     <defs>
      <path d="M 50.59375 8.71875 
L 13.296875 8.71875 
C 14.203125 14.53125 17.40625 18.234375 26.09375 23.34375 
L 36.09375 28.75 
C 46 34.15625 51.09375 41.453125 51.09375 50.171875 
C 51.09375 56.078125 48.703125 61.59375 44.5 65.390625 
C 40.296875 69.203125 35.09375 71 28.40625 71 
C 19.40625 71 12.703125 67.796875 8.796875 61.796875 
C 6.296875 57.984375 5.203125 53.578125 5 46.359375 
L 13.796875 46.359375 
C 14.09375 51.171875 14.703125 54.078125 15.90625 56.375 
C 18.203125 60.6875 22.796875 63.296875 28.09375 63.296875 
C 36.09375 63.296875 42.09375 57.578125 42.09375 49.96875 
C 42.09375 44.359375 38.796875 39.546875 32.5 35.953125 
L 23.296875 30.75 
C 8.5 22.34375 4.203125 15.625 3.40625 0 
L 50.59375 0 
z
" id="Nimbus_Sans_L_Regular-50"/>
     </defs>
     <g transform="translate(81.8937290823 55.4270532135)scale(0.1 -0.1)">
      <use transform="scale(0.996264009963)" xlink:href="#Nimbus_Sans_L_Regular-99"/>
      <use transform="translate(49.8132004981 0.0)scale(0.996264009963)" xlink:href="#Nimbus_Sans_L_Regular-61"/>
      <use transform="translate(107.994693362 0.0)scale(0.996264009963)" xlink:href="#Nimbus_Sans_L_Regular-48"/>
      <use transform="translate(163.386370325 0.0)scale(0.996264009963)" xlink:href="#Nimbus_Sans_L_Regular-46"/>
      <use transform="translate(191.081539928 0.0)scale(0.996264009963)" xlink:href="#Nimbus_Sans_L_Regular-49"/>
      <use transform="translate(246.473216892 0.0)scale(0.996264009963)" xlink:href="#Nimbus_Sans_L_Regular-50"/>
      <use transform="translate(301.864893855 0.0)scale(0.996264009963)" xlink:href="#Nimbus_Sans_L_Regular-53"/>
     </g>
    </g>
    <g id="line2d_37">
     <path d="M 56.893729 66.14736 
L 70.893729 66.14736 
" style="fill:none;stroke:#00bfbf;stroke-linecap:square;"/>
    </g>
    <g id="line2d_38">
     <g>
      <use style="fill:#00bfbf;stroke:#000000;stroke-width:0.5;" x="56.8937290823" xlink:href="#m3303e65771" y="66.1473598761"/>
      <use style="fill:#00bfbf;stroke:#000000;stroke-width:0.5;" x="70.8937290823" xlink:href="#m3303e65771" y="66.1473598761"/>
     </g>
    </g>
    <g id="text_17">
     <!-- c=0.15 -->
     <g transform="translate(81.8937290823 69.6473598761)scale(0.1 -0.1)">
      <use transform="scale(0.996264009963)" xlink:href="#Nimbus_Sans_L_Regular-99"/>
      <use transform="translate(49.8132004981 0.0)scale(0.996264009963)" xlink:href="#Nimbus_Sans_L_Regular-61"/>
      <use transform="translate(107.994693362 0.0)scale(0.996264009963)" xlink:href="#Nimbus_Sans_L_Regular-48"/>
      <use transform="translate(163.386370325 0.0)scale(0.996264009963)" xlink:href="#Nimbus_Sans_L_Regular-46"/>
      <use transform="translate(191.081539928 0.0)scale(0.996264009963)" xlink:href="#Nimbus_Sans_L_Regular-49"/>
      <use transform="translate(246.473216892 0.0)scale(0.996264009963)" xlink:href="#Nimbus_Sans_L_Regular-53"/>
     </g>
    </g>
    <g id="line2d_39">
     <path d="M 56.893729 80.367667 
L 70.893729 80.367667 
" style="fill:none;stroke:#bf00bf;stroke-linecap:square;"/>
    </g>
    <g id="line2d_40">
     <g>
      <use style="fill:#bf00bf;stroke:#000000;stroke-width:0.5;" x="56.8937290823" xlink:href="#m3d98595a14" y="80.3676665386"/>
      <use style="fill:#bf00bf;stroke:#000000;stroke-width:0.5;" x="70.8937290823" xlink:href="#m3d98595a14" y="80.3676665386"/>
     </g>
    </g>
    <g id="text_18">
     <!-- c=0.2 -->
     <g transform="translate(81.8937290823 83.8676665386)scale(0.1 -0.1)">
      <use transform="scale(0.996264009963)" xlink:href="#Nimbus_Sans_L_Regular-99"/>
      <use transform="translate(49.8132004981 0.0)scale(0.996264009963)" xlink:href="#Nimbus_Sans_L_Regular-61"/>
      <use transform="translate(107.994693362 0.0)scale(0.996264009963)" xlink:href="#Nimbus_Sans_L_Regular-48"/>
      <use transform="translate(163.386370325 0.0)scale(0.996264009963)" xlink:href="#Nimbus_Sans_L_Regular-46"/>
      <use transform="translate(191.081539928 0.0)scale(0.996264009963)" xlink:href="#Nimbus_Sans_L_Regular-50"/>
     </g>
    </g>
    <g id="line2d_41">
     <path d="M 56.893729 94.587973 
L 70.893729 94.587973 
" style="fill:none;stroke:#000000;stroke-linecap:square;"/>
    </g>
    <g id="line2d_42">
     <g>
      <use style="stroke:#000000;stroke-width:0.5;" x="56.8937290823" xlink:href="#m6c86025a28" y="94.5879732011"/>
      <use style="stroke:#000000;stroke-width:0.5;" x="70.8937290823" xlink:href="#m6c86025a28" y="94.5879732011"/>
     </g>
    </g>
    <g id="text_19">
     <!-- Ohtsuki et al. -->
     <defs>
      <path d="M 7 73 
L 7 -0.03125 
L 15.296875 -0.03125 
L 15.296875 28.9375 
C 15.296875 39.671875 20.90625 46.6875 29.5 46.6875 
C 32.203125 46.6875 34.90625 45.78125 36.90625 44.28125 
C 39.296875 42.578125 40.296875 40.0625 40.296875 36.359375 
L 40.296875 -0.03125 
L 48.59375 -0.03125 
L 48.59375 39.65625 
C 48.59375 48.484375 42.296875 54 32.09375 54 
C 24.703125 54 20.203125 51.6875 15.296875 45.28125 
L 15.296875 73 
z
" id="Nimbus_Sans_L_Regular-104"/>
      <path d="M 14.09375 73 
L 5.796875 73 
L 5.796875 -0.03125 
L 14.09375 -0.03125 
L 14.09375 20.40625 
L 22.203125 28.421875 
L 39.90625 -0.03125 
L 50.203125 -0.03125 
L 28.796875 34.328125 
L 47 52.453125 
L 36.296875 52.453125 
L 14.09375 30.21875 
z
" id="Nimbus_Sans_L_Regular-107"/>
      <path d="M 38.90625 74.21875 
C 18 74.21875 3.796875 58.84375 3.796875 36.109375 
C 3.796875 13.359375 18 -2 39 -2 
C 47.796875 -2 55.703125 0.6875 61.59375 5.671875 
C 69.5 12.359375 74.203125 23.625 74.203125 35.5 
C 74.203125 58.953125 60.296875 74.21875 38.90625 74.21875 
M 38.90625 66 
C 54.703125 66 64.90625 54.046875 64.90625 35.703125 
C 64.90625 18.171875 54.40625 6.203125 39 6.203125 
C 23.5 6.203125 13.09375 18.171875 13.09375 36.109375 
C 13.09375 54.046875 23.5 66 38.90625 66 
" id="Nimbus_Sans_L_Regular-79"/>
      <path d="M 48.203125 0.515625 
L 48.203125 53 
L 39.90625 53 
L 39.90625 23.109375 
C 39.90625 12.34375 34.296875 5.3125 25.59375 5.3125 
C 19 5.3125 14.796875 9.328125 14.796875 15.671875 
L 14.796875 53 
L 6.5 53 
L 6.5 12.375 
C 6.5 3.625 13 -2 23.203125 -2 
C 30.90625 -2 35.796875 0.703125 40.703125 7.625 
L 40.703125 0.515625 
z
" id="Nimbus_Sans_L_Regular-117"/>
     </defs>
     <g transform="translate(81.8937290823 98.0879732011)scale(0.1 -0.1)">
      <use transform="scale(0.996264009963)" xlink:href="#Nimbus_Sans_L_Regular-79"/>
      <use transform="translate(77.5083701014 0.0)scale(0.996264009963)" xlink:href="#Nimbus_Sans_L_Regular-104"/>
      <use transform="translate(132.900047065 0.0)scale(0.996264009963)" xlink:href="#Nimbus_Sans_L_Regular-116"/>
      <use transform="translate(160.595216668 0.0)scale(0.996264009963)" xlink:href="#Nimbus_Sans_L_Regular-115"/>
      <use transform="translate(210.408417166 0.0)scale(0.996264009963)" xlink:href="#Nimbus_Sans_L_Regular-117"/>
      <use transform="translate(265.800094129 0.0)scale(0.996264009963)" xlink:href="#Nimbus_Sans_L_Regular-107"/>
      <use transform="translate(315.613294628 0.0)scale(0.996264009963)" xlink:href="#Nimbus_Sans_L_Regular-105"/>
      <use transform="translate(365.42524858 0.0)scale(0.996264009963)" xlink:href="#Nimbus_Sans_L_Regular-101"/>
      <use transform="translate(420.816925543 0.0)scale(0.996264009963)" xlink:href="#Nimbus_Sans_L_Regular-116"/>
      <use transform="translate(476.207264749 0.0)scale(0.996264009963)" xlink:href="#Nimbus_Sans_L_Regular-97"/>
      <use transform="translate(531.598941713 0.0)scale(0.996264009963)" xlink:href="#Nimbus_Sans_L_Regular-108"/>
      <use transform="translate(553.715726061 0.0)scale(0.996264009963)" xlink:href="#Nimbus_Sans_L_Regular-46"/>
     </g>
    </g>
    <g id="line2d_43">
     <path d="M 56.893729 108.80828 
L 70.893729 108.80828 
" style="fill:none;stroke:#000000;stroke-dasharray:6.000000,6.000000;stroke-dashoffset:0.0;"/>
    </g>
    <g id="line2d_44"/>
    <g id="text_20">
     <!-- neutral -->
     <g transform="translate(81.8937290823 112.308279864)scale(0.1 -0.1)">
      <use transform="scale(0.996264009963)" xlink:href="#Nimbus_Sans_L_Regular-110"/>
      <use transform="translate(55.3916769633 0.0)scale(0.996264009963)" xlink:href="#Nimbus_Sans_L_Regular-101"/>
      <use transform="translate(110.783353927 0.0)scale(0.996264009963)" xlink:href="#Nimbus_Sans_L_Regular-117"/>
      <use transform="translate(166.17503089 0.0)scale(0.996264009963)" xlink:href="#Nimbus_Sans_L_Regular-116"/>
      <use transform="translate(193.870200493 0.0)scale(0.996264009963)" xlink:href="#Nimbus_Sans_L_Regular-114"/>
      <use transform="translate(226.049333432 0.0)scale(0.996264009963)" xlink:href="#Nimbus_Sans_L_Regular-97"/>
      <use transform="translate(281.441010396 0.0)scale(0.996264009963)" xlink:href="#Nimbus_Sans_L_Regular-108"/>
     </g>
    </g>
   </g>
  </g>
 </g>
 <defs>
  <clipPath id="p525039427e">
   <rect height="181.32768" width="293.3964" x="44.8937290823" y="10.8881196246"/>
  </clipPath>
 </defs>
</svg>
